<?xml version="1.0" encoding="UTF-8"?>
<svg version="1.1" xmlns="http://www.w3.org/2000/svg" width="2048" height="2048">
<path d="M0 0 C3.57399936 -0.00434431 7.14775182 -0.01810213 10.72167969 -0.04101562 C36.15895191 -0.20052391 61.27608822 0.79641779 86.59936523 3.24023438 C88.23405258 3.39739929 88.23405258 3.39739929 89.90176392 3.55773926 C95.48050139 4.11128068 101.04111753 4.76063219 106.59936523 5.49023438 C107.39614685 5.59217102 108.19292847 5.69410767 109.01385498 5.7991333 C138.20463868 9.55378746 167.06094398 15.05731809 195.59936523 22.24023438 C196.6623584 22.50239746 197.72535156 22.76456055 198.82055664 23.03466797 C286.73441856 44.85260697 380.0826138 87.84032648 437.47045898 160.55273438 C439.71572408 163.38712408 442.05844962 166.12020443 444.41186523 168.86523438 C502.60797072 238.77263044 520.85271639 331.77339787 525.59936523 420.24023438 C525.64001827 420.98352107 525.6806713 421.72680776 525.72255624 422.49261829 C526.51282303 437.23346843 526.74729895 451.93200438 526.74412537 466.69195557 C526.74726795 469.08067277 526.75084476 471.46938944 526.75481278 473.85810542 C526.7634124 479.68193411 526.76757544 485.50575364 526.76979973 491.32958796 C526.7727422 498.31899161 526.78147272 505.30838515 526.79044273 512.29778324 C526.80688065 525.19853256 526.81910553 538.09928243 526.82916069 551.00003815 C526.84364299 569.44761519 526.86640686 587.89517715 526.89082581 606.34274336 C526.90061204 613.76289247 526.91013455 621.18304192 526.9196558 628.60319138 C526.92071457 629.42737166 526.92177333 630.25155194 526.92286418 631.10070738 C526.94797045 650.68285865 526.97048716 670.26501266 526.9921875 689.84716797 C526.99313794 690.70305865 526.99408838 691.55894934 526.99506762 692.44077611 C527.01721525 712.40548257 527.03809528 732.37018987 527.0567627 752.3348999 C527.05756645 753.19353897 527.0583702 754.05217804 527.05919831 754.93683648 C527.06324927 759.26678727 527.06729085 763.59673808 527.07133157 767.92668888 C527.07213056 768.78249879 527.07292955 769.63830869 527.07375275 770.52005224 C527.07536505 772.24741317 527.07697587 773.97477411 527.07858522 775.70213505 C527.10526659 804.29565711 527.13865728 832.88916532 527.17936336 861.48267096 C527.18511218 865.52734439 527.19077093 869.57201794 527.19636726 873.61669159 C527.19746907 874.41255971 527.19857087 875.20842783 527.19970606 876.02841317 C527.21714337 888.78495701 527.2273568 901.54149673 527.23461972 914.29805 C527.24204355 927.13564575 527.25650849 939.97321805 527.27804547 952.81079802 C527.28948644 959.75274245 527.29784258 966.69465522 527.29703712 973.63661003 C527.29660516 980.0087487 527.30546708 986.38080862 527.32128692 992.75292704 C527.3253951 995.04073483 527.326271 997.32855159 527.32332283 999.61636117 C527.30044727 1019.87669958 528.07806918 1040.27389296 531.34936523 1060.30273438 C531.51855469 1061.35960449 531.68774414 1062.41647461 531.86206055 1063.50537109 C541.58353275 1121.73923434 568.91525627 1170.44817879 603.59936523 1217.24023438 C604.74825497 1218.7984948 605.8966766 1220.35710044 607.04467773 1221.91601562 C607.62999268 1222.71023926 608.21530762 1223.50446289 608.81835938 1224.32275391 C609.9977448 1225.92361401 611.17662557 1227.52484604 612.35498047 1229.12646484 C615.26356909 1233.07850608 618.18316489 1237.02117779 621.12670898 1240.94726562 C634.41676877 1258.80590101 642.81888918 1275.42475841 640.59936523 1298.24023438 C637.24537388 1314.66910726 622.93788736 1324.8442815 610.57983398 1334.79492188 C607.02646505 1337.71026782 603.5620193 1340.71823433 600.09936523 1343.74023438 C595.71732758 1347.5634961 591.30876429 1351.33178139 586.78686523 1354.99023438 C582.42854228 1358.51809402 578.26978536 1362.21759233 574.12670898 1365.99414062 C571.52974131 1368.30211035 568.86532511 1370.495793 566.16186523 1372.67773438 C561.38796224 1376.53848575 556.86548096 1380.61460513 552.34936523 1384.77148438 C548.78752295 1387.96904734 545.0737069 1390.9541178 541.34936523 1393.95898438 C537.56031117 1397.10217695 533.96667172 1400.44182032 530.34545898 1403.77539062 C527.68061357 1406.16730735 524.95104698 1408.43278321 522.16186523 1410.67773438 C517.62539794 1414.33659207 513.34070424 1418.18892401 509.07788086 1422.15625 C505.86655295 1425.12724627 502.57317734 1427.9397727 499.16186523 1430.67773438 C494.38314896 1434.52133495 489.90778836 1438.60983601 485.43554688 1442.79858398 C482.08837197 1445.91577382 478.669315 1448.87597235 475.09936523 1451.74023438 C469.69499741 1456.07950781 464.64981401 1460.74419853 459.58374023 1465.46679688 C454.96582763 1469.77128951 450.19174917 1473.88335843 445.38842773 1477.97851562 C444.51081787 1478.72766235 444.51081787 1478.72766235 443.61547852 1479.49194336 C442.39597076 1480.53283963 441.17559169 1481.57271594 439.9543457 1482.61157227 C436.13543883 1485.8747694 432.44486589 1489.23551466 428.78686523 1492.67773438 C424.34247957 1496.74525693 419.99667661 1499.62192395 414.59936523 1502.24023438 C413.83237305 1502.66949219 413.06538086 1503.09875 412.27514648 1503.54101562 C397.54355824 1511.58289713 382.46084703 1511.78002765 366.59936523 1507.24023438 C358.17060778 1504.3025645 351.87451354 1498.56724433 345.30688477 1492.74169922 C343.62940006 1491.26664475 341.93081765 1489.82150642 340.22045898 1488.38476562 C326.37000285 1476.7385577 313.43819722 1464.17807409 300.61038208 1451.42648315 C299.32793749 1450.15211297 298.04401928 1448.87922376 296.7585144 1447.60794067 C289.2135681 1440.13767607 282.18240994 1432.58186606 275.59936523 1424.24023438 C274.68817321 1423.16174201 273.77025656 1422.08884061 272.84155273 1421.02539062 C256.02947643 1401.6887286 241.5213765 1380.32791006 227.41259766 1358.97631836 C221.72273449 1350.37152214 215.86791557 1341.87709723 210.04467773 1333.36230469 C208.88637068 1331.66162818 207.74075114 1329.95231324 206.59936523 1328.24023438 C203.80028852 1329.51594042 201.76567691 1330.82940217 199.61010742 1333.01831055 C199.05562927 1333.57616745 198.50115112 1334.13402435 197.92987061 1334.70878601 C197.34127258 1335.31084366 196.75267456 1335.91290131 196.14624023 1336.53320312 C195.21766205 1337.46958366 195.21766205 1337.46958366 194.27032471 1338.42488098 C192.29185376 1340.42113408 190.3201778 1342.42392238 188.34936523 1344.42773438 C185.76422424 1347.04960519 183.17590127 1349.66827243 180.58374023 1352.28320312 C179.96499023 1352.90754242 179.34624023 1353.53188171 178.70874023 1354.17514038 C174.9914747 1357.90476251 171.21578933 1361.50850369 167.17260742 1364.88793945 C165.38788003 1366.42201845 163.74644939 1368.0600479 162.09936523 1369.74023438 C159.11064187 1372.77618362 155.98230044 1375.58532096 152.75561523 1378.36523438 C150.39973566 1380.41382531 148.09429063 1382.51226439 145.78686523 1384.61523438 C141.46810866 1388.51264884 137.02174472 1392.21323793 132.49780273 1395.86914062 C129.96999541 1397.93703691 127.48527539 1400.04658339 125.01123047 1402.17822266 C117.78219222 1408.39093604 110.25489001 1414.13355768 102.57836914 1419.78027344 C100.70684042 1421.16094723 98.84522432 1422.55388222 96.98608398 1423.95117188 C81.82591888 1435.28909749 66.02353077 1445.82149562 49.59936523 1455.24023438 C48.94000977 1455.62066895 48.2806543 1456.00110352 47.60131836 1456.39306641 C-16.10902445 1492.98912482 -85.40752556 1510.94719433 -158.27563477 1516.92773438 C-159.00739929 1516.98858215 -159.73916382 1517.04942993 -160.49310303 1517.11212158 C-182.66480479 1518.92765176 -204.84862612 1519.44894479 -227.08813477 1519.42773438 C-228.26996338 1519.42713013 -229.45179199 1519.42652588 -230.66943359 1519.42590332 C-300.58649729 1519.32913066 -371.18483619 1507.07823522 -433.56274414 1474.1953125 C-435.42716149 1473.2264495 -437.30873937 1472.30122664 -439.19750977 1471.38085938 C-464.00444829 1459.06915437 -487.61563668 1441.89472085 -507.64672852 1422.84570312 C-509.91439615 1420.70026438 -512.21398973 1418.64010162 -514.58813477 1416.61523438 C-546.220602 1389.18708241 -568.80339408 1352.24910029 -587.40063477 1315.24023438 C-587.74433105 1314.5621875 -588.08802734 1313.88414063 -588.44213867 1313.18554688 C-631.50335055 1227.56837467 -638.67599378 1120.1790927 -604.65991211 938.92041016 C-586.16885519 884.88121048 -557.34734586 834.05742218 -518.73657227 791.82226562 C-517.46968113 790.42190602 -516.20879569 789.0155303 -514.98266602 787.5793457 C-509.99268036 781.74993023 -504.64580444 776.29925715 -499.22290039 770.87719727 C-497.6620315 769.31414704 -496.10935589 767.74326072 -494.55688477 766.171875 C-488.88871221 760.47268069 -483.1108921 755.16453611 -476.8034668 750.16943359 C-474.46336055 748.29059601 -472.23842747 746.32900302 -470.02563477 744.30273438 C-407.22294812 688.03507156 -323.8089016 655.58549201 -243.40063477 634.24023438 C-241.5649292 633.74644287 -241.5649292 633.74644287 -239.69213867 633.24267578 C-189.81904954 619.91537877 -138.65222426 611.41705244 -87.58813477 604.17773438 C-86.55132568 604.02955261 -85.5145166 603.88137085 -84.44628906 603.72869873 C-32.63805505 596.36973839 19.43646715 591.02558721 71.47501844 585.60993046 C80.24550397 584.69699676 89.01541125 583.77856125 97.78529286 582.85984719 C115.72271673 580.98087617 133.66079574 579.10823497 151.59936523 577.24023438 C151.67033576 563.2072201 151.72257311 549.17423474 151.75480175 535.14107609 C151.77028956 528.62108593 151.79120858 522.10121843 151.82568359 515.58129883 C152.15972569 450.64872139 151.28829824 381.09903677 103.60717773 331.18554688 C72.59440725 300.00814324 24.72070212 284.43372505 -18.40063477 283.24023438 C-19.0823877 283.21977051 -19.76414062 283.19930664 -20.46655273 283.17822266 C-82.15370786 281.5754428 -142.77093426 299.78090066 -188.40063477 342.24023438 C-216.04995004 369.06819988 -232.90395412 405.12415263 -240.96313477 442.42773438 C-244.69642922 459.48611804 -252.90061216 474.60121639 -267.63500977 484.54492188 C-283.70274862 494.39435502 -303.50219346 489.84961648 -321.37084961 487.88525391 C-323.73963407 487.63158233 -326.10850265 487.37869522 -328.47744751 487.12652588 C-334.8621791 486.444555 -341.24565214 485.75141768 -347.62892485 485.0559411 C-353.64977123 484.40068093 -359.67164601 483.7549764 -365.69340546 483.10817264 C-377.62054523 481.82673798 -389.54673816 480.53669825 -401.47241211 479.24169922 C-413.01796068 477.9879857 -424.56414528 476.7403577 -436.11108398 475.49951172 C-436.82325118 475.42298064 -437.53541838 475.34644956 -438.2691664 475.26759936 C-438.98016271 475.19119498 -439.69115903 475.1147906 -440.42370069 475.03607094 C-453.61562149 473.61841994 -466.80696405 472.19545375 -479.99802177 470.76979546 C-484.64515872 470.26765064 -489.29245463 469.76699831 -493.93980026 469.26678848 C-500.19971753 468.59266924 -506.45916882 467.91437165 -512.71828842 467.23288727 C-515.00981375 466.98400633 -517.30148565 466.73647053 -519.59331512 466.49040604 C-522.73095446 466.15328 -525.86801147 465.81115948 -529.00497437 465.46780396 C-529.90294656 465.37246498 -530.80091876 465.27712601 -531.72610223 465.17889798 C-546.42954391 463.5517713 -559.49118147 460.50058297 -571.40063477 451.24023438 C-572.01551758 450.76328125 -572.63040039 450.28632813 -573.26391602 449.79492188 C-580.59977042 443.32115235 -585.66463566 432.61383484 -586.77954102 422.95898438 C-591.37302409 344.99392036 -536.07463755 247.25603797 -487.40063477 190.24023438 C-486.8964502 189.64726562 -486.39226562 189.05429688 -485.87280273 188.44335938 C-484.17884147 186.45455837 -482.4786395 184.47129555 -480.77563477 182.49023438 C-480.24897217 181.87567383 -479.72230957 181.26111328 -479.1796875 180.62792969 C-475.98385029 176.9400042 -472.64898909 173.46832975 -469.1706543 170.04711914 C-467.33975335 168.17808494 -465.6342542 166.2383704 -463.93188477 164.25195312 C-460.48001599 160.25712615 -456.77426658 156.63530077 -452.90063477 153.05273438 C-452.20703857 152.40836426 -451.51344238 151.76399414 -450.79882812 151.10009766 C-439.15531409 140.34024907 -427.15750083 130.25375383 -414.44995117 120.77050781 C-412.52519685 119.33324786 -410.60895001 117.88530418 -408.69360352 116.43554688 C-336.27789201 62.03305975 -247.68260591 30.63465916 -54.40063477 1.24023438 C-53.15838135 1.15338379 -51.91612793 1.0665332 -50.63623047 0.97705078 C-33.78145238 -0.09856118 -16.88149977 0.01744823 0 0 Z M120.12280273 791.53710938 C118.67800789 791.58708824 118.67800789 791.58708824 117.20402527 791.63807678 C114.12715998 791.74849862 111.05076545 791.86755979 107.97436523 791.99023438 C106.90064667 792.03280365 105.8269281 792.07537292 104.72067261 792.11923218 C10.04150976 795.98438114 -99.26967345 810.4071563 -178.40063477 885.24023438 C-179.00093506 885.82297119 -179.60123535 886.40570801 -180.21972656 887.00610352 C-184.02407081 890.73313417 -187.46685016 894.58287035 -190.71313477 898.80273438 C-191.18114502 899.40859375 -191.64915527 900.01445313 -192.13134766 900.63867188 C-193.0953903 901.89395773 -194.05594258 903.15193205 -195.01293945 904.41259766 C-195.89652566 905.57630743 -196.78471547 906.73654645 -197.67895508 907.89208984 C-230.06948817 949.89172867 -241.62466986 1005.17440113 -241.58813477 1057.24023438 C-241.5877269 1058.23887512 -241.5877269 1058.23887512 -241.58731079 1059.25769043 C-241.56424993 1071.66184933 -240.90381665 1083.923082 -239.40063477 1096.24023438 C-239.30411621 1097.04783203 -239.20759766 1097.85542969 -239.1081543 1098.6875 C-235.84617549 1124.80475561 -227.93437176 1150.10835015 -215.40063477 1173.24023438 C-214.82442383 1174.30886719 -214.24821289 1175.3775 -213.65454102 1176.47851562 C-206.77982014 1188.7196468 -198.01992731 1199.11777884 -188.40063477 1209.24023438 C-187.83086914 1209.87445312 -187.26110352 1210.50867187 -186.67407227 1211.16210938 C-164.16259438 1235.4052394 -126.95634673 1249.06385525 -94.48925781 1250.40136719 C-93.13035716 1250.42084112 -91.77136566 1250.43462895 -90.41235352 1250.44335938 C-89.6760672 1250.45046432 -88.93978088 1250.45756927 -88.18118286 1250.46488953 C-65.61548896 1250.73237855 -65.61548896 1250.73237855 -43.40063477 1247.24023438 C-41.96252441 1246.8936377 -41.96252441 1246.8936377 -40.49536133 1246.54003906 C-26.47565811 1243.0840192 -13.31218987 1238.70202009 -0.40063477 1232.24023438 C0.66525879 1231.71840576 0.66525879 1231.71840576 1.75268555 1231.18603516 C16.50329386 1223.92373701 30.07411175 1214.90186883 42.59936523 1204.24023438 C43.32381836 1203.62664062 44.04827148 1203.01304687 44.79467773 1202.38085938 C57.6936205 1191.09975011 70.12643637 1178.94500652 80.24682617 1165.08447266 C81.7197711 1163.07605641 83.22531467 1161.09440383 84.73217773 1159.11132812 C93.05217702 1148.02912866 99.97521355 1136.39646664 106.59936523 1124.24023438 C107.47296579 1122.66986771 108.34666051 1121.09955342 109.22045898 1119.52929688 C134.44873792 1073.57900804 145.87860337 1021.9426632 150.34936523 970.11523438 C150.40862183 969.4320816 150.46787842 968.74892883 150.52893066 968.04507446 C152.45509424 945.33359858 152.74512781 922.61905519 152.70075917 899.84002995 C152.69439578 896.00577689 152.69391179 892.17152254 152.69273376 888.33726501 C152.68965794 881.11670778 152.68149655 873.89616616 152.67138427 866.67561573 C152.66010484 858.43824005 152.65468325 850.20086353 152.64968884 841.96348202 C152.63930962 825.05572375 152.62178493 808.14798107 152.59936523 791.24023438 C136.35835789 791.17626336 136.35835789 791.17626336 120.12280273 791.53710938 Z " fill="#000000" transform="translate(1052.400634765625,-0.240234375)"/>
<path d="M0 0 C2.37981247 1.30430424 4.69401772 2.69485371 7 4.125 C7.56493164 4.46789063 8.12986328 4.81078125 8.71191406 5.1640625 C11.89226371 7.09914848 15.04108639 9.08005942 18.1796875 11.08203125 C24.1478712 14.87402077 30.20165888 18.52545182 36.25 22.1875 C37.46168872 22.92159983 38.67335848 23.65573096 39.88500977 24.38989258 C41.73580239 25.51125418 43.58664839 26.63252699 45.43769836 27.75346375 C49.65625633 30.30862665 53.87036256 32.87100006 58.08203125 35.4375 C73.40926343 44.77439208 88.80008851 53.99681589 104.265625 63.10351562 C106.02770419 64.14131677 107.78928127 65.1799661 109.55078125 66.21875 C132.52820948 79.76461009 155.63885258 93.06532895 178.93652344 106.05419922 C183.81081199 108.77234461 188.67536329 111.50389023 193.51171875 114.2890625 C208.02532172 122.62917164 222.83458768 130.31200803 237.74424744 137.91110229 C242.95371836 140.57307934 248.12956984 143.29583484 253.30078125 146.03125 C262.94942905 151.12813405 272.67504235 156.06267217 282.4375 160.9375 C283.30461609 161.37075592 284.17173218 161.80401184 285.06512451 162.25039673 C299.61912557 169.51376026 314.25030297 176.55770042 329.07531738 183.25445557 C331.1513794 184.19346973 333.225682 185.13630013 335.29980469 186.07958984 C371.06395789 202.33169864 407.23817561 217.27982208 444 231.125 C445.0248349 231.51205109 445.0248349 231.51205109 446.07037354 231.90692139 C467.19451381 239.88463792 488.52900186 247.14612521 510 254.125 C510.7248761 254.36132141 511.4497522 254.59764282 512.19659424 254.84112549 C536.26399189 262.68419469 560.52396717 269.67320664 585 276.125 C586.28716919 276.4653125 586.28716919 276.4653125 587.6003418 276.8125 C684.29387354 302.33400955 783.47445466 316.57269526 1136 306.125 C1136.95491333 305.98747314 1137.90982666 305.84994629 1138.89367676 305.70825195 C1233.14043502 292.07793059 1325.64791468 268.91015972 1539 195.125 C1539.81472778 194.79842407 1540.62945557 194.47184814 1541.46887207 194.13537598 C1580.46629453 178.47964556 1618.94662999 161.60927223 1657.03125 143.8515625 C1658.11994385 143.34608887 1659.2086377 142.84061523 1660.33032227 142.31982422 C1662.31286539 141.39795023 1664.29281361 140.47046077 1666.26928711 139.53564453 C1677.82059138 134.16486492 1689.86795894 130.46025815 1702.62890625 133.81640625 C1707.96827601 136.23786616 1711.57295241 140.15030925 1714.109375 145.4375 C1717.65028366 156.1223472 1714.0456014 166.87614254 1709.33984375 176.53125 C1702.07854702 190.36246762 1691.07948293 201.3694026 1680.07397461 212.25683594 C1678.29798395 214.01436516 1676.53033191 215.77997146 1674.76367188 217.546875 C1669.01059322 223.28225806 1663.2130042 228.88401472 1657 234.125 C1655.88162675 235.09759653 1654.76441252 236.07152763 1653.6484375 237.046875 C1646.17623668 243.51849579 1638.5422082 249.72651817 1630.72802734 255.77929688 C1629.0352856 257.0975213 1627.35381445 258.42874402 1625.67578125 259.765625 C1580.44183043 295.75709361 1530.96582392 326.95851852 1480 354.125 C1478.69023193 354.82326904 1478.69023193 354.82326904 1477.35400391 355.53564453 C1470.59881442 359.12320966 1463.8069627 362.6368155 1457 366.125 C1456.3945636 366.43608704 1455.7891272 366.74717407 1455.16534424 367.06768799 C1408.59858348 390.98708842 1360.43577761 410.93524918 1311 428.125 C1310.27590942 428.37767639 1309.55181885 428.63035278 1308.80578613 428.89068604 C1218.92071523 460.23005 1124.83069814 479.61565399 994 491.125 C993.11463562 491.18451843 992.22927124 491.24403687 991.31707764 491.30535889 C941.894247 494.60636784 891.39868457 494.94216541 842 491.125 C841.14412292 491.05947937 840.28824585 490.99395874 839.40643311 490.92645264 C798.61498362 487.77185962 758.22804766 482.5773986 718 475.125 C717.21679382 474.9803833 716.43358765 474.8357666 715.62664795 474.68676758 C625.75775824 458.01245254 538.5148633 429.20135394 396.046875 364.16015625 C392.88143958 362.56042878 389.70057748 360.99409038 386.515625 359.43359375 C374.43855842 353.49458589 362.63184866 347.22789649 350.9609375 340.52734375 C345.74159256 337.5320824 340.47582536 334.628228 335.19921875 331.73535156 C319.8522349 323.30513119 304.87622832 314.35362277 290 305.125 C289.11231934 304.57650391 288.22463867 304.02800781 287.31005859 303.46289062 C273.57224424 294.94657907 260.14238669 285.95328819 246.6875 277 C245.34422638 276.1072084 245.34422638 276.1072084 243.97381592 275.19638062 C232.18314272 267.35371747 220.52341027 259.35521359 209 251.125 C208.11852295 250.49899902 207.2370459 249.87299805 206.32885742 249.22802734 C195.73237243 241.69238131 185.35783506 233.8830806 175.0390625 225.97265625 C171.28439824 223.09672811 167.50336397 220.26048602 163.70214844 217.4465332 C155.17049872 211.12461917 146.98647154 204.42905537 138.82714844 197.63623047 C136.49259613 195.70532737 134.12577362 193.81735971 131.75 191.9375 C126.29340542 187.59807622 120.99377079 183.07646126 115.68652344 178.55712891 C114.00637156 177.13041048 112.32063436 175.71060181 110.6328125 174.29296875 C104.81044522 169.39822419 99.08925521 164.42773327 93.46484375 159.3046875 C90.85094972 156.99319325 88.15984448 154.80740653 85.4375 152.625 C81.0439884 149.07306246 77.06014626 145.29437477 73.12109375 141.25 C70.49725519 138.62132932 67.7160392 136.22136564 64.8984375 133.8046875 C62.44183291 131.63114846 60.16644729 129.30482057 57.87120056 126.96351624 C56.08362448 125.20716381 54.2406097 123.57654527 52.33422852 121.95092773 C47.74591726 117.95932128 43.44561071 113.71473973 39.15234375 109.41015625 C38.33681534 108.59558456 37.52128693 107.78101288 36.68104553 106.9417572 C34.96801992 105.22940807 33.25624035 103.51581158 31.5456543 101.80102539 C28.94496448 99.19497985 26.33898044 96.59431478 23.73242188 93.99414062 C22.05957514 92.32063301 20.38703866 90.64681518 18.71484375 88.97265625 C17.94486557 88.2047023 17.17488739 87.43674835 16.38157654 86.64552307 C12.2827815 82.52913628 8.33991687 78.33458455 4.55979919 73.9229126 C1.84628836 70.79516684 -1.02716952 67.81741082 -3.875 64.8125 C-8.72407249 59.6557631 -13.36991681 54.4153897 -17.77734375 48.87109375 C-19.42210405 46.83899096 -21.08751331 44.86801855 -22.81640625 42.91015625 C-30.78630679 33.84712721 -37.39370707 25.19954641 -37.2109375 12.625 C-36.77947465 7.51136621 -34.75880594 4.85081438 -31.125 1.375 C-21.94863626 -5.23198189 -9.90584297 -4.83350547 0 0 Z " fill="#FF9900" transform="translate(90,1515.875)"/>
<path d="M0 0 C1.7629541 0.00090637 1.7629541 0.00090637 3.56152344 0.00183105 C101.81826952 0.13893038 101.81826952 0.13893038 134.25 23.1875 C134.84167969 23.59742188 135.43335938 24.00734375 136.04296875 24.4296875 C143.16693702 29.8122413 145.32826876 36.98503127 146.7109375 45.4765625 C154.8350159 107.06404792 130.50012811 184.86944429 104.33691406 239.88134766 C103.25657891 242.17354124 102.21438246 244.47986158 101.1796875 246.79296875 C88.46809393 274.90617347 71.10827629 302.51866523 51.25 326.1875 C50.34218592 327.28624192 49.43464043 328.3852058 48.52734375 329.484375 C42.33573162 336.9339136 35.88205533 344.12857768 29.25 351.1875 C28.31220703 352.18910156 28.31220703 352.18910156 27.35546875 353.2109375 C18.17756239 362.71125275 5.98527389 373.26806623 -7.8125 373.9375 C-11.64127635 373.67247424 -12.66581126 373.24979966 -15.875 370.875 C-18.75974668 366.74019643 -19.36018088 363.10574994 -18.75 358.1875 C-16.55679939 349.55139076 -13.30232304 341.40162905 -9.75097656 333.24923706 C17.24390071 271.05346921 48.20233313 196.34694246 48.6875 127.75 C48.69773193 126.65469971 48.70796387 125.55939941 48.71850586 124.4309082 C48.60351794 113.9670077 46.96944729 104.35997281 39.671875 96.484375 C17.98127002 75.52286599 -22.81524358 76.65155488 -50.61181641 76.79638672 C-54.19343626 76.81224948 -57.77388597 76.79653871 -61.35546875 76.77734375 C-98.93225524 76.73687905 -136.35846258 80.99110705 -173.6875 84.875 C-180.67286867 85.60077813 -187.65866023 86.32209153 -194.64538765 87.03467751 C-197.38380264 87.31589631 -200.12145173 87.60383287 -202.8591156 87.89225769 C-226.16091797 90.30751427 -226.16091797 90.30751427 -232.75 87.1875 C-235.125 85.0625 -235.125 85.0625 -236.75 82.1875 C-236.98555157 75.12095291 -234.19367864 70.5330669 -229.75 65.1875 C-223.40454272 58.43348209 -215.78691346 53.68385741 -207.75 49.1875 C-206.94788086 48.73858398 -206.14576172 48.28966797 -205.31933594 47.82714844 C-142.57266395 13.12264432 -71.04354103 -0.06740848 0 0 Z " fill="#FF9900" transform="translate(1855.75,1494.8125)"/>
</svg>
